<svg xmlns="http://www.w3.org/2000/svg" width="16.039" height="17.643" viewBox="0 0 16.039 17.643">
  <g id="_1159633" data-name="1159633" transform="translate(0.255 0.25)">
    <path id="Path_7316" data-name="Path 7316" d="M15.885,52.764H2.15c-.811,0-1.351.793,0,.794H15.885C17.236,53.557,16.7,52.764,15.885,52.764Z" transform="translate(-1.327 -36.416)" fill="#161c2d" stroke="#161c2d" stroke-width="0.5"/>
    <path id="Path_7317" data-name="Path 7317" d="M121.876.948a2.259,2.259,0,0,0-3.244,0l-9.1,9.3a.524.524,0,0,0-.131.229l-1.2,4.413a.529.529,0,0,0,.131.508.5.5,0,0,0,.5.134l4.318-1.223a.507.507,0,0,0,.224-.134l9.1-9.3a2.384,2.384,0,0,0,0-3.316Zm-11.229,9.635,7.444-7.608,2.4,2.454-7.444,7.608Zm-.48.984,1.918,1.96-2.653.751Zm11.586-7.428-.541.553-2.4-2.454.541-.553a1.255,1.255,0,0,1,1.8,0l.6.611A1.325,1.325,0,0,1,121.753,4.138Zm0,0" transform="translate(-107.763 -0.261)" fill="#161c2d" stroke="#161c2d" stroke-width="0.5"/>
  </g>
</svg>
